<svg xmlns="http://www.w3.org/2000/svg" viewBox="0 0 24 24"><path d="M24 2.8C24 1.3 22.7 0 21.2 0H2.9C1.3 0 .1 1.3.1 2.8v18.3c0 1.5 1.3 2.8 2.8 2.8h18.3c1.5 0 2.8-1.3 2.8-2.8V2.8zm-1.9 0V11H13V1.9h8.2c.5 0 .9.4.9.9zM2.9 1.9h8.2V11H1.9V2.8c0-.5.5-.9 1-.9zm-1 19.2v-8.2h9.2v9.2H2.9c-.5 0-1-.5-1-1zm19.3 1H13v-9.2h9.2v8.2c-.1.5-.5 1-1 1zM3.7 6.5c0-.5.4-.9.9-.9h.9v-1c0-.5.4-.9.9-.9s.9.4.9.9v.9h.9c.5 0 .9.4.9.9s-.2 1-.7 1h-.9v.9c0 .5-.4.9-.9.9s-1-.4-1-.9v-.9h-.9c-.5 0-1-.4-1-.9zm11.9-.7c-.4-.4-.4-1 0-1.3.4-.4 1-.4 1.3 0l.6.6.6-.6c.4-.4 1-.4 1.3 0 .4.4.4 1 0 1.3l-.6.6.6.6c.4.4.4 1 0 1.3-.4.4-1 .4-1.3 0l-.6-.6-.6.6c-.4.4-1 .4-1.3 0-.4-.4-.4-1 0-1.3l.6-.6-.6-.6zM9.3 17.5c0 .5-.4.9-.9.9H4.7c-.5 0-.9-.4-.9-.9s.4-.9.9-.9h3.7c.5-.1.9.4.9.9zm11 1.8c0 .5-.4.9-.9.9h-3.7c-.5 0-.9-.4-.9-.9s.4-.9.9-.9h3.7c.5 0 .9.4.9.9zm0-3.7c0 .5-.4.9-.9.9h-3.7c-.5 0-.9-.4-.9-.9s.4-.9.9-.9h3.7c.5 0 .9.4.9.9z"/></svg>