<svg xmlns="http://www.w3.org/2000/svg" viewBox="0 0 24 24"><path d="M3.1 24h17.7c.6 0 1-.5 1-1V7.3c0-.6-.5-1-1-1h-4.4c.9-2.4-.4-5.1-2.9-6s-5.1.4-6 2.9c-.4 1-.4 2.1 0 3.1H3.1c-.6 0-1 .5-1 1v5.3c0 .6.5 1 1 1 .3 0 .6-.1.7-.3 1-1 2.7-1.1 3.7 0 1 1 1.1 2.7 0 3.7-1 1-2.7 1.1-3.7 0-.4-.4-1.1-.4-1.5 0-.2.2-.3.5-.3.7V23c.1.5.6 1 1.1 1zm1.1-4.4c2.4.9 5.1-.4 6-2.9.9-2.4-.4-5.1-2.9-6-1-.4-2.1-.4-3.1 0V8.3h5.3c.6 0 1-.5 1-1 0-.3-.1-.6-.3-.7-1-1-1.1-2.7 0-3.7s2.7-1.1 3.7 0c1 1 1.1 2.7 0 3.7-.4.4-.4 1.1 0 1.5.2.2.5.3.7.3h5.3V22H4.2v-2.4z"/></svg>