<svg xmlns="http://www.w3.org/2000/svg" viewBox="0 0 32 32"><path d="M.3 26.7L30.2 3.4c.3-.3.8-.2 1.1.1l.5.6c.3.4.2.9-.1 1.2L1.8 28.6c-.3.3-.8.2-1.1-.1l-.5-.6c-.3-.4-.2-.9.1-1.2zm16.9-16.2l-6.7 5.3c.1-3.1 2.7-5.5 5.7-5.4.3 0 .6.1 1 .1zm-2.4 11l6.7-5.3c-.1 3-2.6 5.4-5.6 5.4-.3 0-.7 0-1.1-.1zM16 8.8c-5 0-9.6 2.8-11.9 7.2.6 1.1 1.3 2.1 2.2 3l-1.9 1.5c-1.1-1.1-1.9-2.4-2.6-3.8-.2-.5-.2-1 0-1.5C4.5 9.9 10 6.4 16 6.4c1.8 0 3.6.3 5.2.9l-2.3 1.8c-.9-.2-1.9-.3-2.9-.3zm0 14.4c5 0 9.5-2.8 11.9-7.2-.6-1.1-1.3-2.1-2.2-3l1.9-1.5c1.1 1.1 1.9 2.4 2.6 3.8.2.5.2 1 0 1.5-2.7 5.4-8.2 8.8-14.2 8.9-1.8 0-3.6-.3-5.2-.9l2.3-1.8c.9.1 1.9.2 2.9.2z"/></svg>