<svg xmlns="http://www.w3.org/2000/svg" viewBox="0 0 24 24"><path d="M20 18.7v.7c0 1.1-.9 2-2 2H2c-1.1 0-2-.9-2-2V8.7c0-1.1.9-2 2-2h.7v2h-.5c-.1 0-.2.1-.2.2v10.2c0 .1.1.2.2.2h15.5c.1 0 .2-.1.2-.2v-.4H20zm1.8-14H6.2c-.1 0-.2.1-.2.2v10.2c0 .1.1.2.2.2h15.5c.1 0 .2-.1.2-.2V4.9c.1-.1 0-.2-.1-.2zm.2-2c1.1 0 2 .9 2 2v10.7c0 1.1-.9 2-2 2H6c-1.1 0-2-.9-2-2V4.7c0-1.1.9-2 2-2h16zM11 7.3c0 1-.7 1.7-1.7 1.7s-1.6-.7-1.6-1.7.7-1.7 1.7-1.7c.9.1 1.6.8 1.6 1.7zm-3 4l1.6-1.6c.2-.2.5-.2.7 0l1.6 1.6L16.3 7c.2-.2.5-.2.7 0l3 3v3.3H8v-2z"/></svg>