<svg xmlns="http://www.w3.org/2000/svg" viewBox="0 0 24 24"><path d="M20 15c-.6 0-1.2.1-1.7.4l-4-7.1c1.8-1.3 2.2-3.8 1-5.6C14 .9 11.5.5 9.7 1.7 7.9 3 7.5 5.5 8.7 7.3c.3.4.6.7 1 1l-4 7.1c-.5-.3-1.1-.4-1.7-.4-2.2 0-4 1.8-4 4s1.8 4 4 4c1.8 0 3.4-1.2 3.9-3h8.3c.6 2.1 2.7 3.4 4.9 2.9 2.1-.6 3.4-2.7 2.9-4.9-.6-1.8-2.2-3-4-3zM12 3c1.1 0 2 .9 2 2s-.9 2-2 2-2-.9-2-2 .9-2 2-2zm0 6h.4l4.3 7.8c-.3.4-.5.8-.6 1.3H7.9c-.1-.5-.3-.9-.6-1.3L11.6 9h.4zM4 21c-1.1 0-2-.9-2-2s.9-2 2-2 2 .9 2 2-.9 2-2 2zm16 0c-1.1 0-2-.9-2-2s.9-2 2-2 2 .9 2 2-.9 2-2 2z"/></svg>