<svg xmlns="http://www.w3.org/2000/svg" viewBox="0 0 24 24"><path d="M9.2 24l-.7-2.6c-.3-.1-.5-.2-.8-.3l-2.3 1.4-3.9-3.9 1.4-2.3c-.1-.3-.2-.5-.3-.8L0 14.8V9.2l2.6-.7c.1-.2.2-.5.3-.7L1.5 5.5l3.9-3.9L7.7 3c.3-.2.6-.3.9-.4L9.2 0h5.6l.7 2.6c.3.1.5.2.8.3l2.3-1.4 3.9 3.9-1.4 2.3c.1.3.2.5.3.8l2.6.7v5.6l-2.6.7c-.1.3-.2.5-.3.8l1.4 2.3-3.9 3.9-2.3-1.4c-.3.1-.5.2-.8.3l-.7 2.6H9.2zm-1-5c.5.3 1 .5 1.5.6l.5.2.5 2.2h2.4l.5-2.2.5-.2 1.5-.6.5-.3 1.9 1.2 1.7-1.7-1.2-1.9.3-.5c.3-.5.5-1 .6-1.5l.2-.5 2.2-.5v-2.4l-2.2-.5-.2-.5-.6-1.5-.3-.5L19.7 6 18 4.3l-1.9 1.2-.5-.3c-.5-.3-1-.5-1.5-.6l-.5-.2-.4-2.4h-2.4l-.5 2.2-.6.1-1.5.6-.5.3-1.9-1.1-1.7 1.7 1.2 1.9-.4.5c-.3.5-.5 1-.6 1.5l-.2.5-2.1.6v2.4l2.2.5.2.5.6 1.5.3.5-1.2 1.9 1.7 1.7 1.9-1.2.5.4zM8 12c0-2.2 1.8-4 4-4s4 1.8 4 4-1.8 4-4 4-4-1.8-4-4zm2 0c0 1.1.9 2 2 2s2-.9 2-2-.9-2-2-2-2 .9-2 2z"/></svg>