<svg xmlns="http://www.w3.org/2000/svg" viewBox="0 0 24 24"><path d="M4.3 23.001c-2.4 0-4.3-1.9-4.3-4.3 0-.7.2-1.5.6-2.1l7.7-13.4c1.2-2 3.8-2.7 5.8-1.6.7.4 1.2.9 1.6 1.6l7.7 13.4c1.2 2.1.5 4.7-1.6 5.9-.6.4-1.4.6-2.1.6H4.3zm5.7-18.9l-7.8 13.4c-.4.7-.4 1.6 0 2.4.4.7 1.2 1.2 2 1.2h15.4c.8 0 1.6-.4 2-1.2.4-.7.4-1.6 0-2.3L14 4.101c-.6-1.1-2-1.5-3.1-.8-.4.2-.7.5-.9.8zm.8 13.6c0-.7.6-1.2 1.2-1.2.7 0 1.2.6 1.2 1.3 0 .6-.5 1.2-1.2 1.2-.7-.1-1.2-.6-1.2-1.3zm.3-3c-.1-1.5-.2-2.9-.3-4.4 0-.4-.1-.8-.1-1.2 0-.6.4-1.2 1-1.3.6-.1 1.2.1 1.4.7.1.2.1.4.1.6 0 .6-.1 1.2-.1 1.9-.1 1-.1 1.9-.2 2.9v.9c0 .5-.4.9-.9.9-.5-.1-.9-.5-.9-1z"/></svg>